# xmcd
#
# Track frame offsets:
#	182
#	17140
#	34925
#	58167
#	74212
#	86542
#	100855
#	113320
#	133337
#	150680
#	168337
#	185612
#
# Disc length: 2708 seconds
#
# Revision: 7
# Processed by: cddbd v1.5.2PL0 Copyright (c) Steve Scherf et al.
# Submitted via: audiograbber 1.83.01
#
DISCID=a50a920c
DTITLE=Bette Midler - Bathhouse Betty
DYEAR=1998
DGENRE=Easy Listening
TTITLE0=Song Of Bernadette
TTITLE1=I'm Beautiful
TTITLE2=Lullaby In Blue
TTITLE3=Ukulele Lady
TTITLE4=I'm Hip
TTITLE5=I Sold My Heart To The Junkman
TTITLE6=One Monkey Don't Stop No Show
TTITLE7=Boxing
TTITLE8=Big Socks
TTITLE9=That's How Love Moves
TTITLE10=My One True Friend (from the motion picture ''One True Thing'')
TTITLE11=Laughing Matters
EXTD=YEAR: 1998 ID3G: 13
EXTT0=
EXTT1=
EXTT2=
EXTT3=
EXTT4=
EXTT5=
EXTT6=
EXTT7=
EXTT8=
EXTT9=
EXTT10=
EXTT11=
PLAYORDER=
